<?xml version="1.0" encoding="UTF-8" standalone="yes"?>
<svg version="1.2" width="1024.000000pt" height="1024.000000pt" viewBox="0 0 1024.000000 1024.000000" preserveAspectRatio="xMidYMid meet" baseProfile="tiny-ps" xmlns="http://www.w3.org/2000/svg">
  <title>bimi-svg-tiny-12-ps</title>
  <g transform="translate(0.000000,1024.000000) scale(0.100000,-0.100000)" fill="#000000" stroke="none">
    <path d="M0 5120 l0 -5120 7680 0 7680 0 0 5120 0 5120 -7680 0 -7680 0 0&#xA;-5120z m7412 3327 c-12 -13 -19 -27 -15 -30 3 -4 -1 -7 -10 -7 -9 0 -17 -5&#xA;-17 -11 0 -5 -4 -7 -10 -4 -5 3 -10 0 -10 -8 0 -8 -7 -18 -16 -21 -9 -3 -14&#xA;-11 -12 -18 2 -6 -4 -20 -14 -30 -14 -14 -16 -22 -7 -36 9 -14 8 -30 -4 -67&#xA;-11 -38 -15 -44 -16 -23 -1 14 -5 28 -11 30 -6 2 -4 14 5 31 23 45 -8 32 -38&#xA;-16 -15 -22 -16 -31 -6 -43 9 -11 8 -14 -9 -14 -16 0 -19 5 -14 22 l5 21 -21&#xA;-21 c-24 -24 -29 -42 -12 -42 7 0 8 -13 4 -36 -5 -27 -4 -35 5 -30 6 4 11 18&#xA;11 31 0 13 5 27 10 30 6 4 10 -7 10 -27 0 -26 3 -30 11 -18 9 12 10 11 4 -5&#xA;-3 -11 -9 -33 -12 -49 -6 -28 -7 -28 -14 -8 -11 29 -37 39 -55 20 -14 -14 -22&#xA;-107 -11 -125 3 -5 0 -10 -8 -10 -8 0 -15 5 -15 11 0 6 -4 5 -9 -3 -5 -8 -21&#xA;-16 -36 -18 -14 -2 -40 -18 -56 -36 -17 -18 -28 -26 -24 -19 3 6 3 12 0 12 -7&#xA;0 -35 -64 -35 -80 0 -6 5 -8 10 -5 6 3 10 -2 10 -12 1 -17 2 -17 15 1 13 17&#xA;15 18 15 3 0 -9 -4 -17 -8 -17 -5 0 -13 -12 -20 -27 l-12 -28 6 28 c4 26 2 28&#xA;-23 25 -22 -2 -29 -9 -31 -31 -2 -17 -8 -25 -14 -21 -8 5 -9 -9 -6 -47 3 -30&#xA;2 -63 -3 -74 -7 -19 -8 -19 -8 -1 -1 15 -4 16 -16 6 -18 -15 -20 -35 -3 -24 8&#xA;5 9 -2 5 -25 -5 -24 -3 -33 9 -38 9 -3 20 0 25 8 5 8 9 9 9 3 0 -17 -27 -37&#xA;-40 -29 -5 3 -14 -4 -19 -17 -6 -13 -10 -19 -10 -14 -1 12 -76 -66 -84 -88 -4&#xA;-10 -1 -24 8 -32 13 -14 16 -14 21 0 8 20 24 21 24 1 0 -29 17 -15 27 23 l10&#xA;37 -1 -42 c0 -36 -3 -43 -21 -43 -30 0 -47 -14 -39 -33 4 -12 1 -17 -11 -17&#xA;-9 0 -13 5 -9 11 4 7 1 10 -7 7 -8 -3 -16 -13 -17 -23 -3 -11 0 -15 7 -11 15&#xA;10 26 -23 12 -37 -6 -6 -11 -18 -10 -27 0 -10 4 -7 11 8 11 22 28 30 28 12 0&#xA;-5 -4 -10 -10 -10 -5 0 -10 -7 -10 -15 0 -19 7 -19 27 0 9 9 13 26 11 40 -3&#xA;13 -1 22 3 19 13 -8 11 -64 -2 -64 -5 0 -8 -4 -5 -9 3 -5 -1 -14 -9 -21 -11&#xA;-9 -15 -10 -15 -1 0 7 -10 11 -22 9 -17 -2 -22 1 -20 15 2 9 -2 17 -8 17 -5 0&#xA;-10 -23 -10 -52 0 -37 -3 -49 -10 -38 -7 12 -9 11 -8 -5 1 -11 -2 -30 -6 -42&#xA;-4 -12 -2 -24 3 -27 6 -4 15 10 21 31 16 59 25 65 27 17 1 -24 -3 -44 -8 -44&#xA;-5 0 -9 -6 -9 -13 0 -7 -13 -24 -28 -37 -30 -27 -69 -80 -57 -80 3 0 21 16 40&#xA;35 28 31 34 33 39 18 4 -10 2 -19 -3 -21 -6 -2 -11 -14 -11 -27 0 -12 -7 -28&#xA;-15 -35 -8 -7 -15 -18 -15 -24 0 -6 5 -4 10 4 11 17 14 1 4 -23 -5 -14 -8 -13&#xA;-23 1 -10 9 -16 23 -13 30 2 6 -1 12 -7 12 -6 0 -11 -7 -11 -15 0 -8 -4 -15&#xA;-10 -15 -5 0 -10 8 -10 18 0 14 -2 15 -10 2 -6 -9 -5 -17 2 -21 6 -4 8 -16 5&#xA;-28 -6 -26 1 -27 19 -3 9 11 13 13 14 4 0 -7 5 -10 11 -7 15 10 0 -66 -17 -85&#xA;-12 -12 -14 -11 -14 9 0 14 -5 21 -12 18 -7 -2 -12 -12 -10 -22 2 -10 -1 -14&#xA;-7 -10 -6 3 -11 1 -11 -5 0 -6 -4 -9 -9 -5 -14 8 -19 -5 -25 -57 -7 -55 -15&#xA;-78 -27 -78 -5 0 -9 -12 -9 -27 0 -22 -2 -25 -10 -13 -9 13 -11 13 -20 0 -13&#xA;-19 -13 -37 0 -43 6 -3 5 -4 -2 -3 -28 7 -48 -15 -48 -50 0 -31 -3 -35 -20&#xA;-29 -13 4 -22 1 -26 -9 -3 -9 -12 -16 -19 -16 -7 0 -15 -18 -19 -40 -3 -22&#xA;-10 -40 -14 -40 -10 0 -10 46 1 56 4 4 7 14 7 22 0 13 -3 12 -18 -2 -18 -16&#xA;-33 -80 -48 -206 -3 -30 -13 -68 -21 -85 -21 -43 -24 -68 -10 -77 9 -6 9 -10&#xA;-3 -17 -8 -6 -15 -18 -15 -28 -3 -72 -20 -125 -48 -153 -32 -31 -49 -26 -39&#xA;13 3 14 1 18 -6 13 -7 -4 -12 -15 -12 -26 0 -10 -7 -20 -15 -24 -8 -3 -15 -14&#xA;-15 -25 0 -18 3 -19 24 -7 31 16 108 7 114 -14 3 -8 1 -12 -3 -8 -11 10 -45&#xA;-10 -45 -27 0 -7 -4 -15 -10 -17 -5 -1 -11 -16 -12 -33 -1 -16 -10 -39 -20&#xA;-49 -10 -11 -18 -25 -18 -30 1 -18 72 66 82 97 6 15 15 27 21 27 7 0 20 14 29&#xA;30 20 35 44 48 60 32 8 -8 6 -15 -4 -26 -9 -8 -19 -12 -23 -8 -4 4 -5 -15 -3&#xA;-42 3 -28 10 -52 16 -54 14 -4 16 -39 3 -44 -12 -4 -17 -80 -7 -96 4 -7 3 -19&#xA;-3 -26 -6 -7 -8 -16 -4 -20 4 -4 -1 -4 -10 0 -13 5 -20 1 -24 -15 -3 -14 -13&#xA;-21 -28 -21 -41 0 -40 32 2 162 31 98 28 125 -9 69 -14 -22 -29 -50 -33 -61&#xA;-4 -11 -11 -18 -16 -15 -5 4 -9 -1 -9 -10 0 -9 5 -13 10 -10 6 3 10 1 10 -5 0&#xA;-7 -7 -10 -15 -7 -19 8 -31 -13 -14 -24 11 -7 11 -9 -2 -9 -9 0 -20 -10 -24&#xA;-22 -6 -20 -8 -21 -12 -5 -4 14 -8 15 -18 7 -8 -6 -11 -18 -9 -25 3 -8 1 -22&#xA;-5 -32 -6 -10 -11 -13 -11 -7 0 6 -12 9 -29 6 -27 -4 -29 -2 -24 19 5 20 1 18&#xA;-21 -10 -14 -19 -26 -43 -26 -52 0 -9 -7 -19 -15 -23 -13 -5 -14 -2 -5 15 6&#xA;11 9 25 7 32 -6 15 -27 -37 -27 -66 0 -18 -2 -19 -10 -7 -8 13 -10 12 -11 -5&#xA;-4 -45 -8 -72 -17 -110 l-10 -40 -1 40 c-2 113 17 185 88 329 38 77 81 177 95&#xA;221 13 44 34 107 45 140 11 33 39 114 62 180 22 66 69 203 104 305 56 166 79&#xA;228 147 395 11 27 44 99 73 160 47 98 149 406 177 535 6 25 14 50 18 55 5 6&#xA;22 45 39 87 80 203 163 330 327 505 62 65 145 154 185 198 81 88 145 145 162&#xA;145 6 0 1 -10 -11 -23z m1733 -2447 c35 -115 123 -381 140 -422 4 -11 3 -18&#xA;-4 -18 -6 0 -11 5 -11 11 0 6 -9 23 -21 37 -12 16 -18 34 -15 48 4 13 0 27 -9&#xA;34 -8 7 -13 16 -10 20 6 10 -15 70 -25 70 -4 0 -6 8 -4 18 3 11 -7 24 -28 37&#xA;-17 11 -33 27 -36 35 -2 9 0 11 5 5 4 -5 17 -17 27 -25 19 -15 19 -14 2 13&#xA;-11 16 -14 27 -7 27 13 0 5 47 -11 67 -5 7 -7 16 -4 22 3 5 0 11 -8 14 -7 3&#xA;-17 18 -20 34 -4 15 -15 37 -24 47 -9 11 -11 16 -4 12 7 -4 15 -1 19 10 4 10&#xA;0 20 -11 26 -9 5 -14 13 -11 19 4 5 3 14 -1 21 -4 7 -9 28 -10 48 -3 31 0 28&#xA;20 -25 13 -33 41 -116 61 -185z m171 -520 c4 -25 21 -74 39 -110 57 -113 113&#xA;-320 87 -320 -6 0 -13 17 -17 38 -7 41 -57 91 -98 96 -32 5 -57 17 -57 27 0 6&#xA;-7 21 -17 35 -12 19 -18 22 -24 12 -7 -10 -11 -10 -21 0 -6 6 -20 12 -30 12&#xA;-10 0 -18 5 -18 11 0 5 5 7 10 4 6 -4 17 -1 25 5 12 10 15 9 15 -4 0 -9 5 -16&#xA;10 -16 6 0 10 9 10 19 0 11 3 26 6 35 4 11 1 16 -10 16 -9 0 -16 4 -16 8 0 5&#xA;7 9 15 9 8 0 15 -4 15 -9 0 -4 7 -8 15 -8 8 0 15 -7 15 -15 0 -19 9 -19 32 2&#xA;17 15 18 15 19 -8 l0 -24 9 23 c13 30 2 56 -16 41 -11 -9 -14 -6 -16 17 -3 60&#xA;-6 65 -60 105 -51 36 -23 40 29 4 20 -13 39 -23 41 -20 2 2 -1 18 -7 36 -13&#xA;39 -14 59 -1 39 5 -8 12 -35 16 -60z m147 -506 c224 -111 225 -112 289 -192&#xA;34 -42 93 -108 131 -146 53 -53 63 -67 44 -62 -20 5 -26 1 -30 -15 -3 -12 -11&#xA;-19 -19 -16 -7 2 -11 11 -9 18 2 8 6 22 8 31 4 14 0 18 -21 16 -14 -1 -26 -3&#xA;-26 -5 0 -1 4 -13 10 -27 6 -16 6 -27 0 -31 -6 -4 -10 -14 -10 -23 0 -13 2&#xA;-13 14 4 25 33 35 4 16 -45 l-17 -43 -38 33 c-49 43 -103 100 -134 140 -13 17&#xA;-37 36 -53 41 -16 6 -27 15 -25 22 4 13 -20 39 -31 32 -15 -9 -31 9 -22 24 7&#xA;12 13 12 33 1 14 -7 30 -10 36 -7 5 4 15 -2 20 -13 12 -21 38 -34 52 -26 18&#xA;12 -16 44 -54 51 -26 4 -41 12 -44 24 -3 11 -11 16 -19 13 -10 -4 -12 0 -7 13&#xA;5 13 3 16 -10 11 -9 -3 -17 -2 -17 4 0 6 10 9 23 8 12 -2 28 0 35 5 8 5 20 1&#xA;32 -9 12 -11 20 -13 25 -6 8 13 -41 59 -72 67 -12 3 -25 15 -29 26 -4 15 -8&#xA;17 -14 8 -6 -9 -12 -9 -26 0 -26 16 -74 -3 -74 -29 0 -10 -7 -22 -16 -25 -10&#xA;-4 -14 -12 -9 -24 5 -13 3 -14 -6 -5 -9 9 -8 20 4 50 8 21 19 70 23 108 5 42&#xA;10 58 12 40 2 -19 11 -34 25 -41z m-3403 -55 c33 -33 60 -65 60 -69 0 -5 6&#xA;-15 13 -22 7 -7 27 -32 45 -55 32 -41 33 -43 16 -68 -20 -30 -34 -32 -34 -5 0&#xA;33 -16 23 -30 -20 -7 -22 -17 -40 -22 -40 -16 0 -8 57 12 75 11 10 18 20 16&#xA;23 -3 2 -1 15 4 28 6 15 6 24 0 24 -6 0 -10 7 -10 15 0 21 -46 38 -70 25 -10&#xA;-5 -33 -7 -52 -4 -27 4 -30 3 -15 -6 37 -23 17 -45 -40 -43 -7 1 -13 -3 -13&#xA;-8 0 -5 -11 -14 -24 -21 -37 -16 -38 -33 -2 -35 26 -2 51 -9 154 -39 7 -2 10&#xA;-8 7 -14 -8 -13 -42 -13 -50 0 -3 6 -27 10 -52 10 -43 0 -45 -1 -39 -25 5 -21&#xA;3 -25 -16 -25 -242 0 -324 -20 -409 -98 -73 -68 -79 -70 -79 -29 0 31 -3 35&#xA;-25 33 -29 -1 -30 -3 -10 -50 14 -34 14 -36 -4 -36 -12 0 -21 9 -25 25 -8 33&#xA;-25 24 -18 -10 2 -15 0 -25 -7 -25 -6 0 -11 -7 -11 -15 0 -8 -6 -13 -12 -11&#xA;-7 1 -10 1 -5 -1 4 -3 4 -10 1 -15 -4 -6 1 -17 11 -25 12 -8 14 -13 6 -13 -8&#xA;0 -11 -6 -7 -15 3 -8 1 -15 -4 -15 -6 0 -10 -7 -10 -15 0 -18 12 -19 28 -3 6&#xA;6 15 8 19 3 5 -4 2 -10 -4 -12 -7 -3 -13 -13 -13 -24 0 -10 -4 -19 -9 -19 -4&#xA;0 -9 -12 -9 -27 -1 -49 -5 -68 -12 -78 -11 -14 -23 -95 -14 -95 4 0 13 8 20&#xA;18 7 9 14 12 14 6 0 -6 -9 -23 -21 -38 -15 -19 -16 -24 -5 -20 11 4 16 1 16&#xA;-10 0 -9 -5 -16 -10 -16 -6 0 -8 -11 -4 -25 4 -15 1 -32 -6 -40 -10 -12 -10&#xA;-18 1 -31 11 -14 10 -19 -6 -33 -14 -11 -21 -31 -23 -66 -4 -96 -7 -110 -19&#xA;-108 -24 5 -13 -17 12 -27 30 -11 31 -26 8 -80 -13 -30 -22 -39 -35 -34 -10 3&#xA;-18 1 -18 -5 0 -6 -13 -9 -30 -8 -35 2 -36 2 -10 61 12 29 26 46 37 47 17 1&#xA;17 2 0 6 -11 3 -16 11 -13 21 8 26 37 163 41 199 4 27 2 30 -15 26 -24 -6 -25&#xA;0 -4 32 11 17 14 36 10 55 -5 29 7 42 17 18 3 -7 5 4 4 24 0 33 -2 36 -19 27&#xA;-24 -13 -23 3 1 18 19 12 19 55 -1 80 -6 7 -7 21 -2 30 4 10 8 29 10 43 1 14&#xA;0 19 -3 13 -2 -7 -13 -13 -24 -13 -10 0 -19 -4 -19 -10 0 -5 -11 -10 -25 -10&#xA;-25 0 -33 14 -15 25 6 3 10 1 10 -4 0 -6 5 -11 10 -11 6 0 3 11 -6 24 -8 14&#xA;-21 23 -29 20 -16 -7 -28 -63 -16 -78 5 -6 6 -26 4 -45 -4 -23 -8 -29 -14 -20&#xA;-7 11 -9 9 -9 -5 0 -11 -9 -29 -20 -41 -24 -26 -38 -85 -20 -85 7 0 10 7 6 15&#xA;-3 8 -1 15 4 15 19 0 10 -32 -10 -37 -11 -3 -20 -9 -20 -13 0 -5 -10 -10 -21&#xA;-12 -12 -2 -27 -12 -33 -23 -25 -44 -69 -68 -79 -42 -4 7 -8 3 -12 -10 -6 -18&#xA;-12 -22 -31 -17 -17 5 -29 -1 -48 -23 -14 -15 -26 -34 -26 -40 0 -7 -4 -13&#xA;-10 -13 -5 0 -10 -9 -10 -19 0 -11 -4 -23 -10 -26 -5 -3 -10 -15 -10 -26 0&#xA;-10 -4 -19 -10 -19 -5 0 -10 -7 -10 -15 0 -8 -4 -15 -9 -15 -5 0 -9 -16 -8&#xA;-35 1 -19 5 -35 9 -35 5 0 4 -9 -2 -19 -13 -26 -13 -31 5 -31 8 0 15 -6 15&#xA;-12 -1 -16 -46 -68 -58 -68 -5 0 -12 -12 -15 -27 -5 -26 -5 -26 12 -6 26 32&#xA;49 36 45 7 -3 -27 5 -30 25 -11 11 10 12 8 7 -10 -4 -12 -2 -24 4 -28 16 -10&#xA;12 -23 -9 -30 -11 -3 -22 -13 -25 -22 -5 -12 0 -14 24 -11 24 4 30 1 30 -14 0&#xA;-10 4 -18 10 -18 5 0 7 8 4 18 -4 10 -3 13 3 6 4 -6 15 -14 23 -17 12 -4 11&#xA;-6 -2 -6 -10 -1 -18 -6 -18 -12 0 -5 5 -7 12 -3 8 5 9 2 4 -12 -17 -40 -19&#xA;-57 -8 -50 7 4 12 16 12 27 0 10 6 19 14 19 7 0 16 9 19 20 3 11 0 20 -6 20&#xA;-6 0 -7 3 -4 7 4 3 16 -2 27 -12 11 -10 20 -14 20 -9 0 5 5 1 11 -9 10 -18 12&#xA;-17 23 5 7 14 16 37 20 52 10 39 50 76 82 76 26 0 26 0 -14 -39 -47 -46 -67&#xA;-81 -77 -135 -5 -24 -10 -33 -15 -26 -18 29 -120 -15 -120 -51 0 -5 -7 -6 -16&#xA;-2 -12 4 -13 7 -3 14 8 4 10 12 5 16 -5 4 -11 2 -13 -4 -10 -28 -24 -12 -17&#xA;19 6 29 5 31 -10 19 -9 -7 -16 -20 -16 -27 0 -8 -6 -11 -15 -8 -8 4 -15 1 -15&#xA;-5 0 -6 -7 -11 -15 -11 -8 0 -15 5 -15 10 0 6 6 10 14 10 14 0 46 36 46 52 0&#xA;19 -31 6 -40 -17 -11 -28 -16 -30 -45 -12 -24 14 -30 48 -7 40 12 -5 14 -1 10&#xA;15 -4 12 -2 22 2 22 4 0 6 9 3 20 -3 11 -10 20 -15 20 -6 0 -8 -6 -5 -14 3 -8&#xA;0 -19 -7 -25 -7 -6 -18 -37 -25 -68 -6 -32 -19 -89 -28 -128 -9 -38 -20 -101&#xA;-23 -140 l-7 -70 -2 63 c0 35 8 109 19 164 12 55 19 103 16 105 -6 6 -86 -58&#xA;-86 -68 0 -5 -10 -17 -22 -29 -13 -12 -17 -20 -9 -20 10 0 11 -3 2 -13 -6 -8&#xA;-8 -17 -4 -21 4 -4 0 -4 -9 -1 -13 5 -19 -2 -27 -32 -5 -21 -9 -51 -8 -68 2&#xA;-62 -3 -85 -18 -85 -8 0 -15 -8 -15 -17 0 -12 3 -14 8 -7 5 8 13 4 25 -12 10&#xA;-13 14 -24 8 -24 -5 0 -12 6 -15 13 -3 8 -9 6 -20 -7 -19 -23 -22 -46 -4 -28&#xA;18 18 28 15 28 -9 0 -12 -4 -18 -11 -13 -7 4 -10 1 -7 -7 3 -8 11 -13 17 -11&#xA;6 1 11 -3 11 -9 0 -7 -10 -9 -25 -7 -21 5 -25 2 -19 -14 3 -12 1 -17 -6 -16&#xA;-7 2 -15 -3 -18 -11 -3 -9 0 -11 8 -6 10 6 11 3 6 -11 -8 -19 -14 -42 -15 -58&#xA;-1 -5 -8 -2 -17 5 -15 12 -15 10 -1 -24 l16 -37 -26 17 c-23 16 -26 16 -35 0&#xA;-5 -9 -16 -17 -23 -17 -8 0 -15 -4 -15 -10 0 -9 17 -14 47 -13 6 0 9 -5 7 -12&#xA;-3 -7 -1 -16 5 -20 6 -3 11 -11 11 -18 0 -6 -6 -2 -14 9 -14 18 -15 18 -21 2&#xA;-4 -10 -11 -16 -16 -13 -4 3 -6 12 -2 21 12 31 -42 -7 -72 -51 -16 -24 -32&#xA;-43 -35 -42 -3 1 -30 -14 -60 -33 -30 -19 -59 -37 -65 -39 -22 -9 20 30 74 70&#xA;32 23 70 61 84 83 39 62 83 193 107 316 34 178 101 293 229 387 69 51 70 55&#xA;96 223 25 162 70 295 117 342 10 10 18 24 18 31 0 14 106 132 233 259 66 67&#xA;67 70 67 121 0 50 5 59 104 202 141 205 212 275 278 275 24 0 97 40 142 77 16&#xA;13 52 36 80 50 28 14 68 39 88 55 20 16 51 33 68 39 17 6 60 31 96 55 36 24&#xA;67 44 70 44 2 0 31 -27 64 -61z m3907 -386 c4 -10 28 -43 53 -73 86 -100 411&#xA;-664 455 -791 18 -51 41 -196 51 -324 6 -84 11 -97 62 -195 127 -240 161 -324&#xA;197 -485 9 -44 26 -118 36 -165 26 -115 107 -281 146 -299 40 -19 124 -89 164&#xA;-138 35 -44 99 -151 99 -167 0 -15 -13 2 -45 59 -36 65 -160 180 -204 190 -17&#xA;4 -34 11 -37 17 -3 5 -26 18 -50 28 -24 11 -44 22 -44 24 0 3 7 3 15 0 8 -4&#xA;15 -1 15 5 0 7 -6 14 -13 17 -8 3 -20 21 -27 40 -9 23 -19 33 -28 29 -9 -3&#xA;-12 0 -9 8 3 8 -5 25 -17 38 -12 13 -32 40 -45 59 -13 19 -30 40 -38 47 -9 7&#xA;-10 13 -4 17 6 4 17 -7 26 -24 8 -16 21 -30 27 -30 6 0 22 -10 35 -21 l22 -22&#xA;-9 32 c-6 22 -5 31 3 31 8 0 8 3 -1 12 -9 9 -15 9 -24 0 -7 -7 -17 -12 -23&#xA;-12 -12 0 -36 50 -29 61 3 5 -1 6 -9 3 -10 -4 -14 2 -14 20 0 14 2 26 6 26 14&#xA;-1 29 -16 33 -35 2 -12 10 -19 21 -17 11 2 15 -2 11 -13 -3 -8 -1 -15 5 -15&#xA;15 0 14 23 -4 46 -17 22 -20 48 -4 38 13 -7 3 55 -11 70 -14 15 -33 -4 -19&#xA;-20 8 -10 7 -17 -5 -29 -14 -14 -17 -15 -22 -2 -3 9 -1 24 4 34 14 29 9 99 -7&#xA;95 -9 -2 -12 4 -9 16 3 10 -3 30 -13 43 -22 29 -24 59 -4 59 22 0 19 5 -30 52&#xA;-44 42 -56 73 -41 108 4 9 -2 20 -15 28 -30 19 -53 -2 -45 -42 5 -29 5 -30 -9&#xA;-12 -24 31 -18 51 21 73 16 9 24 9 33 0 8 -8 11 -8 11 1 0 7 -4 12 -9 12 -11&#xA;0 -26 39 -23 56 2 10 -37 28 -45 21 -3 -3 -22 -164 -29 -241 -3 -34 -8 -63&#xA;-11 -66 -5 -5 5 198 13 255 14 100 15 135 5 135 -9 0 -9 6 0 22 7 13 9 39 4&#xA;72 -4 28 -6 61 -6 73 0 12 -4 25 -9 28 -6 3 -10 17 -10 30 0 12 -7 25 -15 29&#xA;-8 3 -12 12 -9 20 3 8 1 17 -5 21 -6 3 -11 13 -11 22 0 9 -8 25 -17 36 -17 18&#xA;-17 19 0 32 9 6 17 20 17 29 0 21 -9 20 -26 -1 -7 -10 -14 -13 -14 -6 0 6 5&#xA;15 10 18 6 4 8 11 5 16 -4 5 1 9 9 9 22 0 20 17 -2 24 -10 3 -25 22 -34 41 -8&#xA;19 -11 32 -7 29 19 -12 7 20 -21 56 -17 21 -33 52 -36 68 -4 17 -12 33 -20 36&#xA;-8 3 -14 15 -14 28 0 27 -37 68 -61 68 -10 0 -21 5 -24 10 -3 6 3 10 14 10 19&#xA;0 20 2 9 20 -7 11 -18 20 -25 20 -8 0 -13 13 -13 30 0 31 -17 39 -38 18 -9 -9&#xA;-12 -9 -12 0 0 7 5 12 10 12 6 0 10 7 10 15 0 8 -5 15 -11 15 -8 0 -8 5 1 15&#xA;10 12 10 15 -4 15 -11 0 -16 9 -16 30 0 19 -7 33 -19 40 -32 16 -38 11 -11&#xA;-10 32 -24 20 -36 -20 -20 -20 8 -29 18 -26 27 4 8 6 19 6 24 0 5 7 9 15 9 8&#xA;0 15 5 15 11 0 22 -44 89 -58 89 -12 0 -14 -12 -7 -67 4 -38 7 -114 7 -170 0&#xA;-57 4 -103 8 -103 3 0 7 -7 7 -15 0 -10 -6 -13 -18 -10 -22 7 -33 -24 -24 -71&#xA;5 -27 3 -34 -10 -34 -12 0 -14 9 -10 51 3 29 10 58 17 66 15 18 16 155 1 160&#xA;-6 2 -9 13 -6 23 6 23 -22 54 -39 44 -9 -5 -9 -2 1 9 12 15 10 20 -13 42 -14&#xA;13 -26 29 -26 35 0 7 -8 9 -20 5 -21 -7 -24 3 -20 54 1 14 -2 21 -9 17 -19&#xA;-12 -12 41 11 89 17 34 28 45 45 45 13 0 26 -8 30 -17z m-2996 -548 c13 -13&#xA;24 -34 24 -47 0 -13 5 -22 13 -20 7 1 12 -8 12 -23 0 -14 -5 -25 -11 -25 -5 0&#xA;-8 4 -4 9 8 14 -8 21 -24 12 -10 -7 -14 -62 -17 -235 l-4 -227 27 3 c42 5 38&#xA;-19 -4 -26 -73 -12 -73 -12 -56 42 16 52 25 483 10 535 -9 34 3 35 34 2z&#xA;m1430 -61 c-20 -77 -31 -246 -24 -391 6 -136 5 -146 -11 -140 -10 4 -27 7 -39&#xA;7 -20 1 -21 2 -4 14 21 16 22 54 2 83 -8 12 -17 50 -20 85 l-5 63 14 -60 c16&#xA;-71 25 -95 37 -95 11 0 9 60 -3 76 -4 6 -5 35 -3 65 3 30 8 83 11 119 5 58 8&#xA;94 13 182 0 16 8 28 19 30 24 6 25 5 13 -38z m1926 -560 c25 -16 47 -54 57&#xA;-99 5 -26 3 -24 -14 11 -13 25 -35 49 -58 62 -36 20 -53 21 -367 24 -492 4&#xA;-613 12 -275 18 394 7 630 1 657 -16z m-4457 -52 c0 -4 -10 -14 -22 -21 -18&#xA;-12 -80 -15 -303 -16 -322 -2 -467 5 -472 22 -2 6 8 13 24 16 51 7 773 7 773&#xA;-1z m1190 0 c154 4 742 2 1500 -5 867 -9 1059 -12 1067 -21 2 -2 17 -1 32 4&#xA;18 5 33 3 45 -5 17 -13 16 -13 -1 -19 -14 -4 -1703 0 -2603 6 -113 1 -257 1&#xA;-320 1 -736 -4 -910 -2 -910 13 0 8 10 19 23 24 14 7 224 8 567 5 300 -3 570&#xA;-4 600 -3z m-2880 -1287 c-7 -8 -19 -15 -27 -15 -16 0 -66 -50 -103 -104 -14&#xA;-19 -33 -36 -43 -36 -10 0 -20 -8 -23 -17 -3 -10 -10 -26 -15 -36 -5 -10 -7&#xA;-22 -4 -27 4 -6 -1 -10 -9 -10 -9 0 -16 -7 -16 -15 0 -9 9 -15 21 -15 12 0 19&#xA;-5 17 -12 -3 -7 -11 -13 -19 -13 -21 0 -40 -22 -33 -39 8 -22 21 -20 29 4 3&#xA;11 9 20 13 20 11 0 8 -60 -3 -61 -18 -2 -46 -20 -41 -27 2 -4 -14 -16 -36 -27&#xA;-23 -11 -43 -28 -46 -38 -3 -11 -8 -14 -11 -8 -4 6 -26 -9 -51 -34 -25 -24&#xA;-51 -44 -57 -45 -7 0 -13 -6 -13 -13 0 -7 -28 -39 -62 -72 -59 -58 -60 -59&#xA;-38 -20 13 22 51 69 84 105 34 36 92 112 130 168 37 57 74 106 82 109 8 3 14&#xA;11 14 19 0 8 5 14 10 14 6 0 10 8 10 18 0 9 9 32 20 50 11 17 16 32 12 32 -4&#xA;0 0 4 8 10 8 5 12 11 9 14 -9 9 -49 -6 -49 -18 0 -11 -69 -76 -81 -76 -14 0&#xA;-89 -79 -89 -94 0 -9 -3 -15 -7 -13 -5 3 -15 -2 -23 -11 -8 -9 -14 -17 -12&#xA;-17 5 0 -8 -37 -23 -66 -8 -14 -11 -30 -6 -35 4 -5 -5 -31 -20 -59 -35 -62&#xA;-36 -51 -5 56 13 46 27 101 31 121 4 21 12 35 17 32 5 -3 12 4 15 15 3 12 53&#xA;65 112 117 106 95 203 153 289 173 53 13 56 13 42 -4z m6833 -319 c18 -7 99&#xA;-79 182 -159 82 -81 150 -145 152 -143 1 1 -4 37 -12 80 -15 80 -18 102 -11&#xA;95 2 -2 13 -54 24 -114 17 -91 27 -120 56 -164 48 -70 73 -157 80 -272 4 -84&#xA;4 -87 -4 -29 -21 145 -26 160 -93 229 -120 125 -143 146 -187 179 -25 18 -68&#xA;50 -97 72 -58 45 -74 51 -43 18 11 -12 20 -25 20 -29 0 -4 6 -14 13 -21 58&#xA;-59 251 -388 282 -481 15 -43 25 -81 22 -83 -3 -3 -10 12 -17 33 -22 71 -55&#xA;143 -66 143 -6 0 -19 9 -29 20 -16 18 -16 20 -2 20 25 0 22 9 -38 90 -30 41&#xA;-55 79 -55 84 0 4 -14 26 -32 49 -18 22 -41 57 -53 78 -11 20 -38 57 -60 81&#xA;-46 51 -157 138 -177 138 -17 1 -53 28 -46 35 7 7 72 -21 122 -53 22 -14 53&#xA;-33 68 -42 79 -44 222 -155 298 -232 48 -49 90 -88 93 -88 43 0 -81 163 -183&#xA;240 -25 19 -64 53 -86 75 -55 55 -125 115 -133 115 -11 1 -42 50 -31 50 6 0&#xA;25 -6 43 -14z m-6031 -356 c-10 -10 -29 -17 -43 -16 -17 1 -27 -7 -37 -27 -10&#xA;-22 -18 -26 -34 -21 -12 3 -18 2 -15 -4 8 -11 -47 -62 -68 -62 -8 0 -19 -9&#xA;-25 -20 -6 -11 -17 -20 -24 -20 -7 0 -19 -11 -26 -25 -7 -14 -19 -25 -27 -25&#xA;-7 0 -18 -9 -25 -20 -7 -11 -18 -20 -24 -20 -6 0 -22 -12 -36 -27 -13 -16 -38&#xA;-40 -54 -54 -16 -15 -36 -35 -45 -45 -19 -22 -69 -64 -75 -64 -10 0 -64 -58&#xA;-64 -69 0 -6 -6 -11 -13 -11 -8 0 -39 -26 -69 -57 -59 -61 -249 -233 -287&#xA;-259 -12 -9 -24 -14 -27 -11 -3 2 28 33 68 67 40 34 189 175 330 312 141 138&#xA;266 257 277 265 12 8 35 27 53 43 18 16 67 58 109 92 43 35 78 66 78 69 2 14&#xA;-39 16 -57 3 -10 -7 -31 -15 -46 -18 -45 -8 -120 -39 -136 -55 -23 -24 -60&#xA;-43 -60 -31 0 5 -4 10 -10 10 -5 0 -10 -7 -10 -16 0 -19 -46 -65 -55 -56 -3 4&#xA;-10 0 -15 -8 -8 -12 -10 -12 -10 -1 0 11 -3 11 -15 1 -8 -6 -20 -8 -26 -4 -9&#xA;5 -10 2 -6 -10 5 -13 1 -19 -13 -23 -11 -3 -20 -12 -20 -19 0 -8 -3 -13 -7&#xA;-12 -15 4 -52 -22 -58 -42 -4 -11 -10 -18 -14 -15 -5 2 -17 -2 -27 -10 -25&#xA;-19 -34 -19 -34 1 0 9 11 25 25 36 21 16 23 23 14 35 -7 8 -8 13 -3 11 10 -3&#xA;101 48 121 68 7 7 29 18 48 24 19 6 35 15 35 20 0 5 10 12 23 16 12 3 51 24&#xA;87 45 36 21 97 46 135 57 39 10 69 23 68 29 -2 8 7 9 30 2 53 -15 90 -10 122&#xA;15 l30 24 3 -25 c2 -15 -4 -32 -16 -43z m5312 -91 c11 -1 25 -1 29 0 5 1 6 -3&#xA;2 -9 -3 -5 -2 -10 3 -10 5 0 12 -12 15 -26 3 -18 1 -24 -9 -20 -17 7 -19 -25&#xA;-2 -42 9 -9 7 -16 -6 -31 -17 -19 -15 -23 44 -128 35 -59 72 -124 83 -143 l21&#xA;-34 -27 19 c-14 11 -26 25 -26 30 -1 23 -57 125 -70 125 -8 0 -11 6 -7 15 3 9&#xA;-1 18 -9 21 -8 4 -15 12 -15 20 0 7 -11 26 -25 41 -24 27 -24 27 -25 6 0 -13&#xA;5 -23 10 -23 6 0 10 -4 10 -10 0 -21 -20 -9 -26 16 -4 16 -12 23 -20 20 -11&#xA;-4 -14 9 -14 63 0 37 3 89 6 115 l7 47 15 -30 c9 -19 23 -31 36 -32z"/>
  </g>
</svg>
